<svg xmlns="http://www.w3.org/2000/svg" viewBox="0 0 135 38" width="135" height="38" fill="none">
  <defs>
    <linearGradient id="bg" x1="0%" y1="0%" x2="100%" y2="100%">
      <stop offset="0%" stop-color="#0F172A" />
      <stop offset="100%" stop-color="#070A12" />
    </linearGradient>
  </defs>

  <!-- Button Background -->
  <rect width="135" height="38" fill="url(#bg)" rx="8" />
  <rect x="0.5" y="0.5" width="134" height="37" rx="7.5" stroke="#38BDF8" stroke-opacity="0.4" stroke-width="1" />

  <!-- GitHub Icon -->
  <g transform="translate(14, 9)">
    <path d="M 10 0 C 4.5 0 0 4.5 0 10 C 0 14.4 2.8 18.2 6.8 19.5 C 7.3 19.6 7.5 19.3 7.5 19 C 7.5 18.7 7.5 17.8 7.5 16.8 C 4.7 17.4 4.1 15.5 4.1 15.5 C 3.6 14.3 2.9 14 2.9 14 C 2 13.4 3 13.4 3 13.4 C 4 13.5 4.5 14.5 4.5 14.5 C 5.4 16 6.8 15.6 7.4 15.3 C 7.5 14.6 7.8 14.2 8.1 13.9 C 5.9 13.7 3.5 12.8 3.5 8.9 C 3.5 7.8 3.9 6.9 4.6 6.2 C 4.5 5.9 4.1 4.8 4.7 3.5 C 4.7 3.5 5.5 3.2 7.5 4.6 C 8.3 4.4 9.1 4.3 10 4.3 C 10.9 4.3 11.7 4.4 12.5 4.6 C 14.5 3.2 15.3 3.5 15.3 3.5 C 15.9 4.8 15.5 5.9 15.4 6.2 C 16.1 6.9 16.5 7.8 16.5 8.9 C 16.5 12.8 14.1 13.6 11.9 13.9 C 12.2 14.2 12.5 14.8 12.5 15.7 L 12.5 19 C 12.5 19.3 12.7 19.6 13.2 19.5 C 17.2 18.2 20 14.4 20 10 C 20 4.5 15.5 0 10 0 Z" fill="#F8FAFC" />
  </g>

  <!-- Button Label -->
  <text x="44" y="24" font-family="-apple-system, BlinkMacSystemFont, 'Segoe UI', Roboto, sans-serif" font-size="12" font-weight="700" fill="#F8FAFC" letter-spacing="0.5">GitHub</text>
</svg>
